# xmcd
#
# Track frame offsets: 
#        150
#        20079
#        33533
#        47903
#        59494
#        83219
#        99996
#        110127
#        128638
#
# Disc length: 1847 seconds
#
# Revision: 2
# Processed by: cddbd v1.5.2PL0 Copyright (c) Steve Scherf et al.
# Submitted via: ExactAudioCopy v0.99pb4
#
DISCID=7a073509
DTITLE=Hypnotic Brass Ensemble - Flipside
DYEAR=2001
DGENRE=Brass Jazz
TTITLE0=Satty
TTITLE1=She
TTITLE2=Frankie Mae
TTITLE3=Loudmouth
TTITLE4=Flipside
TTITLE5=1347
TTITLE6=Caravan
TTITLE7=Reggae
TTITLE8=Todd (In Memory Of)
EXTD=
EXTT0=
EXTT1=
EXTT2=
EXTT3=
EXTT4=
EXTT5=
EXTT6=
EXTT7=
EXTT8=
PLAYORDER=
